<svg xmlns="http://www.w3.org/2000/svg" viewBox="0 0 600 210" width="600" height="210">
  <defs>
    <style>
      .stroke { fill: none; stroke: #C8A96E; stroke-width: 2; stroke-linecap: round; stroke-linejoin: round; }
      .node   { fill: #C8A96E; }
    </style>
  </defs>

  <!-- ══ ICON ══ -->
  <g transform="translate(105,105)">
    <path class="stroke" d="
      M -19.2,-52.6
      L   0.0,-68.0  L  19.2,-52.6
      Q  20.7,-49.9   23.7,-50.7
      L  48.1,-48.1  L  50.7,-23.7
      Q  49.9,-20.7   52.6,-19.2
      L  68.0,  0.0  L  52.6, 19.2
      Q  49.9, 20.7   50.7, 23.7
      L  48.1, 48.1  L  23.7, 50.7
      Q  20.7, 49.9   19.2, 52.6
      L   0.0, 68.0  L -19.2, 52.6
      Q -20.7, 49.9  -23.7, 50.7
      L -48.1, 48.1  L -50.7, 23.7
      Q -49.9, 20.7  -52.6, 19.2
      L -68.0,  0.0  L -52.6,-19.2
      Q -49.9,-20.7  -50.7,-23.7
      L -48.1,-48.1  L -23.7,-50.7
      Q -20.7,-49.9  -19.2,-52.6 Z
    "/>
    <line class="stroke" x1="0" y1="-52" x2="0" y2="8"/>
    <line class="stroke" x1="-42" y1="2" x2="42" y2="2"/>
    <path class="stroke" d="M  0,-44 C -12,-50 -30,-44 -34,-28 C -38,-12 -30, 0 -18, 2"/>
    <path class="stroke" d="M -14,-34 C -24,-26 -28,-14 -22, -4"/>
    <path class="stroke" d="M  0,-44 C  12,-50  30,-44  34,-28 C  38,-12  30, 0  18, 2"/>
    <path class="stroke" d="M  14,-34 C  24,-26  28,-14  22, -4"/>
    <line class="stroke" x1="-18" y1="2"  x2="-36" y2="24"/>
    <line class="stroke" x1=" 18" y1="2"  x2=" 36" y2="24"/>
    <line class="stroke" x1="-36" y1="24" x2="  0" y2="16"/>
    <line class="stroke" x1=" 36" y1="24" x2="  0" y2="16"/>
    <line class="stroke" x1="-36" y1="24" x2="-26" y2="46"/>
    <line class="stroke" x1=" 36" y1="24" x2=" 26" y2="46"/>
    <circle class="node" cx="  0" cy="-52" r="4"/>
    <circle class="node" cx="-50" cy="  0" r="4"/>
    <circle class="node" cx=" 50" cy="  0" r="4"/>
    <circle class="node" cx="-26" cy=" 46" r="4"/>
    <circle class="node" cx=" 26" cy=" 46" r="4"/>
    <circle class="node" cx="  0" cy=" 16" r="3"/>
  </g>

  <!-- ══ TEXT ══ -->
  <line x1="393" y1="72" x2="393" y2="152" stroke="#C8A96E" stroke-width="1.2" opacity="0.6"/>
  <text x="208" y="133" font-family="'Arial Black','Helvetica Neue',Arial,sans-serif" font-weight="900" font-size="94" letter-spacing="-1" fill="#FFFFFF">AJI</text>
  <text x="404" y=" 93" font-family="'Helvetica Neue',Arial,sans-serif" font-weight="500" font-size="22" fill="#FFFFFF" letter-spacing="0.3">Assistente</text>
  <text x="404" y="121" font-family="'Helvetica Neue',Arial,sans-serif" font-weight="500" font-size="22" fill="#FFFFFF" letter-spacing="0.3">Jurídico</text>
  <text x="404" y="149" font-family="'Helvetica Neue',Arial,sans-serif" font-weight="500" font-size="22" fill="#FFFFFF" letter-spacing="0.3">Inteligente</text>

</svg>
