<?xml version="1.0" standalone="no"?>
<!DOCTYPE svg PUBLIC "-//W3C//DTD SVG 20010904//EN"
 "http://www.w3.org/TR/2001/REC-SVG-20010904/DTD/svg10.dtd">
<svg version="1.0" xmlns="http://www.w3.org/2000/svg"
 width="600.000000pt" height="849.000000pt" viewBox="0 0 600.000000 849.000000"
 preserveAspectRatio="xMidYMid meet">
<g transform="translate(0.000000,849.000000) scale(0.100000,-0.100000)"
fill="#000000" stroke="none">
<path d="M953 5093 c-9 -21 -16 -44 -16 -50 0 -7 -5 -13 -10 -13 -5 0 -6 -7
-3 -16 3 -8 2 -13 -3 -10 -5 3 -11 -3 -14 -14 -3 -14 -14 -20 -32 -20 -14 0
-40 -7 -56 -16 -25 -13 -33 -13 -47 -2 -13 11 -14 11 -8 -1 7 -10 4 -12 -12
-7 -11 4 -23 2 -27 -3 -3 -7 0 -8 9 -5 9 3 16 2 16 -4 0 -5 -20 -19 -45 -31
-40 -19 -48 -20 -60 -7 -8 8 -28 17 -45 21 -16 4 -30 10 -30 15 0 4 -10 6 -22
2 -20 -5 -21 -4 -9 11 7 9 18 14 25 10 6 -3 8 -2 3 2 -11 13 -45 16 -52 5 -4
-6 1 -7 10 -3 15 5 15 3 4 -16 -8 -12 -22 -24 -32 -27 -10 -3 -16 -8 -14 -11
3 -2 -6 -15 -20 -29 -17 -17 -32 -23 -46 -19 -12 2 -17 2 -10 -1 8 -4 5 -16
-9 -41 -17 -29 -19 -39 -10 -54 7 -10 12 -26 12 -34 0 -10 5 -13 12 -9 7 5 8
3 4 -5 -5 -7 -1 -20 7 -29 19 -22 15 -39 -17 -91 -15 -23 -24 -47 -20 -53 4
-7 3 -8 -4 -4 -8 5 -12 -2 -12 -18 0 -14 -5 -26 -11 -26 -6 0 -9 -6 -6 -13 2
-7 -3 -28 -12 -47 -13 -27 -22 -35 -43 -34 -15 0 -24 -4 -21 -10 4 -5 -1 -7
-11 -3 -10 4 -15 3 -11 -3 3 -6 -3 -10 -14 -10 -41 0 -51 -25 -48 -121 2 -71
-1 -88 -11 -84 -8 3 -1 -8 15 -25 29 -31 45 -41 24 -16 -10 12 -8 13 9 9 12
-3 19 -11 17 -17 -3 -7 5 -12 22 -11 14 0 32 -5 39 -12 8 -7 19 -10 25 -6 7 3
9 3 5 -2 -4 -4 -3 -14 2 -20 13 -15 2 -47 -13 -38 -6 3 -7 1 -3 -5 4 -6 13 -9
21 -6 10 4 17 -7 25 -38 7 -23 16 -46 21 -49 5 -3 11 -20 14 -39 2 -18 9 -38
16 -44 9 -8 9 -5 0 14 -11 24 -11 24 3 6 14 -18 14 -21 -1 -38 -9 -10 -13 -21
-10 -24 3 -4 -3 -24 -13 -45 -26 -50 -25 -57 8 -87 15 -14 27 -29 27 -34 0 -4
2 -7 5 -5 3 1 27 -20 54 -48 27 -27 45 -44 41 -36 -5 9 -3 12 6 9 8 -3 39 8
70 24 55 29 58 29 88 13 17 -9 29 -20 26 -25 -3 -5 0 -12 6 -16 8 -4 9 -3 5 4
-11 17 4 15 72 -13 34 -14 71 -25 83 -25 14 0 19 -5 16 -15 -4 -8 -1 -17 5
-21 7 -5 8 -2 3 6 -5 9 -4 11 3 6 9 -5 9 -13 2 -27 -8 -14 -8 -19 1 -17 7 2
16 -11 20 -28 13 -46 42 -56 147 -52 51 2 92 7 91 12 0 5 3 12 8 15 10 7 37
61 38 76 0 6 6 19 12 29 11 21 2 73 -17 88 -5 4 -8 6 -6 2 7 -10 -67 -74 -77
-67 -6 3 -7 1 -3 -6 6 -9 11 -9 22 0 20 16 17 2 -6 -31 -11 -15 -17 -30 -14
-33 7 -7 -62 -17 -104 -15 -18 0 -28 4 -22 8 9 6 9 9 1 14 -6 4 -8 12 -5 18 4
6 2 8 -3 5 -6 -4 -13 5 -16 21 -8 37 -46 85 -64 78 -7 -3 -21 -1 -31 4 -9 6
-41 19 -69 29 -29 10 -50 21 -45 26 4 4 -1 5 -12 1 -14 -5 -17 -2 -12 9 3 10
2 13 -5 10 -6 -4 -20 1 -31 12 -12 10 -18 12 -14 5 7 -11 4 -11 -13 -1 -17 11
-27 10 -68 -11 -61 -30 -78 -33 -93 -15 -7 8 -17 12 -24 8 -6 -3 -8 -3 -5 1 4
4 -4 18 -17 31 l-23 24 21 48 c11 26 24 53 29 59 5 7 -1 30 -16 60 -14 27 -23
55 -20 61 2 7 -1 12 -8 10 -7 -1 -12 5 -12 13 -1 8 -7 26 -15 40 -8 14 -16 30
-16 35 -1 6 -3 13 -4 18 -5 15 -8 27 -9 42 0 9 -12 20 -26 27 -13 6 -22 15
-18 21 3 6 2 7 -4 4 -5 -3 -22 1 -37 8 -16 8 -32 13 -36 10 -17 -11 -31 59
-16 83 4 6 3 12 -2 12 -6 0 -8 8 -5 19 5 20 79 54 96 44 6 -4 7 -1 3 6 -6 8
-2 11 10 9 10 -2 19 2 20 7 0 6 6 24 13 40 7 17 14 40 14 52 1 11 6 19 10 16
5 -3 8 1 6 8 -3 26 1 39 12 39 6 0 8 -8 5 -17 -5 -15 -4 -15 9 1 17 23 19 33
6 41 -5 3 3 29 18 57 l28 52 -27 67 -28 67 23 23 c41 43 64 59 80 53 8 -3 12
-11 8 -17 -3 -5 -1 -7 5 -4 5 4 31 -2 57 -13 45 -19 74 -16 95 9 3 3 14 13 24
21 18 13 19 13 11 0 -5 -9 0 -8 13 4 12 11 22 16 22 12 0 -3 10 0 23 8 12 8
36 17 53 19 17 3 40 10 51 16 11 5 23 8 25 5 3 -2 15 19 27 47 12 29 19 54 17
57 -15 14 29 32 78 32 60 0 76 -13 76 -61 0 -5 6 -7 13 -3 7 5 6 0 -3 -11 -8
-10 -10 -16 -3 -12 10 6 30 -27 26 -43 -1 -3 7 -7 18 -7 19 -2 26 11 11 21 -5
3 -21 37 -36 75 l-28 71 -74 0 -75 0 -19 -47 c-37 -91 -41 -95 -105 -113 -33
-9 -92 -33 -131 -53 l-70 -38 -57 26 c-32 14 -65 25 -73 25 -9 0 -38 -23 -64
-50 l-49 -51 16 -37 c8 -20 22 -50 30 -65 13 -27 12 -32 -18 -85 -18 -31 -44
-93 -58 -136 l-26 -80 -65 -26 -65 -26 0 -79 0 -78 68 -26 c54 -21 69 -31 73
-51 12 -55 48 -147 75 -192 l28 -47 -30 -67 -30 -68 53 -53 c29 -29 58 -53 65
-53 7 0 38 12 68 27 l55 27 63 -34 c34 -19 95 -44 136 -56 l74 -21 24 -64 c13
-35 29 -67 36 -71 7 -4 40 -8 74 -8 70 0 76 5 108 92 10 26 24 53 32 59 13 11
-38 -145 -52 -159 -11 -11 -175 -9 -184 2 -4 6 -16 34 -26 61 -25 68 -29 72
-93 90 -31 9 -87 32 -125 51 l-69 35 -66 -31 -66 -31 -65 65 -64 64 26 62 c33
76 33 81 1 136 -15 25 -37 77 -49 117 -13 39 -29 75 -37 79 -7 4 -39 19 -71
32 l-57 25 0 89 0 90 63 22 c79 30 84 33 92 78 3 20 24 74 46 119 21 45 39 87
39 94 0 6 -12 38 -27 71 l-26 59 64 65 65 65 68 -31 69 -30 46 27 c25 15 82
39 126 54 44 15 83 33 87 40 4 8 18 40 32 72 l25 58 87 -3 88 -3 27 -70 c15
-38 30 -79 34 -90 7 -19 8 -18 15 5 4 14 3 29 -2 34 -4 6 -8 20 -8 33 0 13 -5
23 -12 23 -6 0 -9 3 -5 6 3 3 -5 24 -17 47 l-23 41 -84 1 c-46 0 -90 -4 -98
-10 -11 -7 -13 -7 -7 3 4 7 2 12 -4 12 -6 0 -18 -17 -27 -37z m-483 -573 c0
-5 -2 -10 -4 -10 -3 0 -8 5 -11 10 -3 6 -1 10 4 10 6 0 11 -4 11 -10z"/>
<path d="M489 4958 c-5 -18 -6 -38 -1 -34 7 8 12 36 6 36 -2 0 -4 -1 -5 -2z"/>
<path d="M1276 4884 c-21 -7 -42 -11 -47 -8 -5 3 -6 -3 -2 -12 4 -12 3 -15 -5
-10 -8 5 -10 1 -5 -10 4 -10 2 -15 -3 -11 -25 15 -54 -122 -45 -215 4 -38 3
-68 -2 -68 -4 0 -6 -4 -3 -9 3 -5 -1 -11 -9 -15 -8 -3 -15 -2 -15 2 0 4 -21 6
-47 4 -42 -3 -49 -1 -58 20 -6 13 -16 22 -22 21 -7 -2 -21 10 -32 25 -12 15
-25 32 -31 39 -14 17 -13 28 6 44 9 8 27 31 41 52 18 28 21 42 14 56 -6 10 -7
22 -3 26 4 5 1 5 -5 1 -8 -4 -13 -1 -13 8 0 9 -4 16 -10 16 -5 0 -10 7 -10 15
0 31 -65 39 -112 14 -13 -8 -27 -12 -31 -11 -5 1 -5 -3 -1 -9 5 -8 2 -10 -8
-7 -12 5 -14 -7 -14 -70 1 -72 2 -75 25 -77 26 -2 41 -20 41 -53 0 -31 18 -64
31 -57 5 4 8 3 7 -2 -3 -13 106 -123 122 -123 11 -1 10 -4 -4 -15 -11 -8 -15
-15 -9 -15 7 0 15 5 18 10 10 15 98 13 90 -2 -4 -7 0 -5 8 5 19 23 48 12 43
-16 -3 -20 -9 -22 -81 -23 -72 -1 -81 1 -102 24 -12 13 -21 28 -18 32 4 7 -5
9 -50 13 -14 1 -25 6 -25 11 0 5 -3 6 -7 3 -10 -11 -32 27 -23 38 6 7 0 11
-18 12 -38 2 -92 12 -103 18 -5 4 -6 -1 -3 -9 3 -9 -2 -17 -15 -21 -23 -7 -51
-57 -51 -92 0 -14 13 -37 29 -53 16 -16 26 -32 22 -36 -3 -4 0 -4 8 1 8 4 17
2 23 -6 6 -10 11 -10 14 -3 3 6 17 10 33 8 20 -2 34 4 49 21 11 13 18 26 15
29 -4 3 1 6 11 6 9 0 14 5 11 10 -13 20 6 9 35 -21 16 -17 27 -37 23 -43 -4
-6 2 -4 12 4 10 8 16 10 12 4 -10 -17 8 -21 106 -22 87 -1 117 -10 117 -38 0
-11 -46 -13 -237 -13 -240 0 -297 4 -271 20 10 7 9 9 -4 9 -10 0 -18 4 -18 8
0 12 -46 32 -73 32 -13 0 -32 -7 -43 -15 -12 -8 -25 -11 -29 -7 -5 4 -5 2 -2
-4 4 -7 0 -15 -9 -18 -9 -3 -14 -13 -10 -21 3 -8 0 -17 -6 -21 -7 -5 -8 -2 -3
6 6 9 4 11 -4 6 -9 -6 -8 -13 6 -29 10 -11 14 -18 8 -15 -6 4 -10 -8 -10 -26
0 -19 5 -33 12 -33 7 0 10 5 7 11 -3 6 3 1 13 -11 11 -13 35 -25 61 -29 38 -6
46 -3 88 29 l46 36 238 -1 238 0 -10 -29 c-5 -16 -15 -26 -20 -23 -12 8 -84 7
-147 -1 -36 -5 -51 -13 -79 -45 -38 -45 -41 -46 -68 -24 -10 8 -12 12 -4 8 13
-7 13 -5 1 9 -7 9 -21 17 -30 17 -11 0 -12 3 -4 8 7 4 -10 9 -37 10 -44 2 -54
-2 -82 -29 -27 -26 -32 -37 -33 -79 0 -30 6 -54 14 -62 12 -11 13 -10 6 2 -4
8 3 2 16 -13 21 -24 29 -27 69 -23 24 2 46 9 48 15 2 6 8 9 13 5 5 -3 9 0 9 6
0 6 5 8 13 4 7 -5 6 0 -3 11 -8 10 -10 16 -3 12 6 -4 14 -3 18 3 3 5 15 10 25
10 10 0 25 6 32 13 7 7 21 16 31 20 11 4 15 12 11 18 -4 7 -3 9 4 5 6 -3 15 1
20 10 7 12 27 16 84 17 73 2 74 2 74 -23 0 -25 -1 -25 -67 -22 -60 4 -68 2
-83 -19 -9 -13 -16 -19 -16 -14 0 13 -130 -124 -131 -138 -1 -7 -3 -22 -4 -35
-1 -13 -16 -35 -34 -51 -28 -25 -31 -33 -29 -76 3 -40 8 -51 33 -70 33 -24 85
-38 85 -22 0 5 8 3 17 -4 14 -12 16 -12 8 0 -6 11 -4 13 8 8 13 -5 17 -1 17
14 0 11 4 18 9 14 5 -3 14 9 20 27 14 43 20 99 11 93 -5 -3 -22 8 -38 24 -16
17 -31 28 -34 26 -2 -2 -4 4 -4 15 0 14 3 16 13 8 10 -8 12 -7 8 5 -4 8 -1 18
4 22 6 3 8 11 5 17 -4 5 4 4 17 -3 22 -11 23 -11 10 4 -9 12 -10 17 -2 17 7 0
9 5 5 12 -4 6 -3 8 4 4 6 -3 18 4 26 16 12 17 29 24 76 28 66 6 78 3 75 -20
-10 -71 -14 -170 -7 -170 5 0 7 -11 4 -25 -2 -15 3 -36 14 -52 10 -16 17 -32
16 -36 -1 -5 2 -6 7 -3 5 4 13 -3 16 -15 4 -11 9 -18 13 -15 3 3 13 -1 22 -9
27 -25 114 -31 145 -11 14 9 25 13 25 10 0 -4 10 1 22 12 12 10 18 14 15 7 -4
-6 -3 -14 2 -18 6 -3 8 4 6 16 -5 26 30 63 68 72 28 8 79 56 71 68 -3 5 3 6
12 2 11 -4 15 -3 10 5 -4 6 1 10 11 9 27 -2 113 44 113 60 0 8 4 12 9 8 5 -3
12 4 16 15 4 11 11 18 16 15 5 -3 6 1 3 9 -6 15 48 80 59 70 9 -9 48 59 42 74
-3 7 -1 11 4 8 5 -4 7 23 5 62 -4 80 -6 93 -12 88 -5 -6 -52 48 -52 59 0 4 7
5 15 1 16 -6 39 27 27 38 -4 4 0 11 9 16 11 7 16 27 17 74 1 37 -3 66 -7 66
-5 0 -8 8 -7 17 2 10 -15 32 -38 51 -51 43 -65 62 -58 81 3 9 1 12 -6 7 -7 -4
-12 -3 -12 3 0 16 -61 74 -79 76 -30 3 -90 29 -85 37 3 4 -2 8 -10 8 -15 0
-21 13 -16 35 1 6 -2 7 -6 3 -4 -4 -21 3 -38 15 -17 12 -32 21 -34 19 -5 -6
-27 13 -38 33 -16 28 -92 65 -133 64 -20 0 -53 -7 -75 -15z m145 -32 c15 -9
39 -32 54 -49 15 -18 34 -33 43 -33 8 0 35 -20 58 -45 30 -31 56 -48 84 -54
57 -13 86 -35 111 -84 12 -23 44 -62 70 -87 47 -44 49 -49 49 -99 0 -58 -15
-94 -54 -130 l-26 -25 29 -30 c41 -44 51 -68 51 -126 0 -49 -3 -54 -53 -103
-29 -29 -59 -67 -66 -85 -17 -40 -59 -71 -108 -79 -28 -5 -50 -19 -84 -55 -25
-26 -52 -48 -62 -48 -9 0 -39 -22 -66 -50 -46 -46 -54 -50 -98 -50 -57 0 -105
26 -133 72 -17 28 -20 51 -20 159 0 145 4 139 -94 139 l-62 0 -61 -62 c-81
-82 -87 -108 -39 -152 26 -25 36 -42 36 -64 0 -66 -75 -103 -123 -60 -14 12
-29 35 -33 51 -5 23 0 33 28 60 24 22 37 45 41 72 5 31 21 53 74 107 l67 67
80 3 81 3 0 45 0 45 -93 3 -92 3 -49 -46 c-26 -25 -58 -45 -69 -45 -12 0 -29
-11 -39 -26 -30 -47 -85 -51 -126 -9 -24 23 -21 74 5 102 33 36 80 31 119 -12
18 -19 38 -35 46 -35 8 0 35 20 62 45 l47 44 94 3 93 3 24 44 c13 24 21 46 19
48 -2 2 -126 4 -277 4 l-273 0 -24 -31 c-29 -37 -88 -42 -117 -10 -27 30 -25
88 4 111 37 30 76 24 117 -16 l35 -35 269 0 c155 0 271 4 275 9 3 5 -6 26 -20
47 -14 20 -25 41 -25 45 0 5 -46 9 -103 9 l-103 0 -34 35 c-40 41 -94 49 -103
16 -7 -29 -52 -54 -82 -47 -64 16 -86 86 -40 131 36 37 78 33 112 -10 20 -25
36 -35 57 -35 19 0 42 -12 68 -35 l39 -36 92 3 92 3 0 45 0 45 -80 3 -80 3
-72 72 c-64 62 -73 76 -73 108 0 28 -5 39 -24 49 -14 7 -30 25 -36 41 -25 59
41 124 101 99 60 -25 66 -84 14 -136 -19 -19 -35 -44 -35 -55 0 -12 28 -50 67
-90 l67 -70 76 3 75 3 5 135 c5 147 16 181 69 213 35 22 119 22 152 -1z m462
-577 c-3 -9 -8 -14 -10 -11 -3 3 -2 9 2 15 9 16 15 13 8 -4z"/>
<path d="M1319 4850 c-93 -27 -99 -44 -100 -294 0 -225 5 -252 59 -280 60 -31
113 -24 157 20 36 36 63 41 31 5 -24 -27 -26 -71 -3 -104 27 -39 13 -46 -18
-9 -62 74 -169 61 -214 -26 -17 -32 -16 -421 1 -457 26 -57 116 -82 178 -50
57 29 78 111 45 174 -17 34 -18 41 -7 41 13 0 42 -56 42 -82 0 -12 4 -29 9
-36 13 -21 65 10 85 51 14 31 21 35 66 39 56 6 86 26 106 75 20 46 18 65 -11
108 -15 20 -24 40 -21 43 9 9 39 -22 53 -55 16 -39 22 -40 56 -9 54 50 53 138
-3 194 -35 35 -85 44 -243 41 -75 -1 -112 2 -115 10 -3 8 42 11 157 11 l160 0
36 31 c49 44 62 96 36 153 -29 67 -75 86 -86 37 -6 -30 -41 -69 -51 -58 -3 3
5 20 17 37 59 79 1 190 -100 192 -36 0 -42 4 -58 35 -10 19 -31 42 -46 51 -24
15 -29 15 -37 2 -5 -8 -10 -26 -10 -40 0 -14 -7 -36 -16 -48 -8 -12 -12 -26
-9 -32 3 -6 -1 -7 -9 -4 -20 8 -20 23 -1 44 19 21 22 98 6 128 -24 46 -94 76
-142 62z m79 -39 c48 -26 65 -106 31 -147 -16 -20 -19 -53 -5 -56 34 -4 65 -4
64 1 -2 20 4 23 15 7 12 -16 13 -16 13 3 0 11 -4 17 -8 15 -10 -7 -10 20 0 30
7 8 8 13 11 41 1 12 5 13 20 5 12 -6 18 -18 16 -30 -2 -11 1 -23 7 -26 7 -5 8
-2 4 7 -4 8 1 3 12 -10 15 -18 31 -25 62 -27 23 -1 49 -9 59 -18 10 -9 22 -13
26 -9 5 5 3 0 -5 -10 -10 -14 -11 -17 0 -15 18 4 24 -49 9 -84 -12 -29 -36
-41 -25 -12 3 8 2 12 -3 9 -6 -3 -9 -14 -8 -25 1 -10 6 -16 12 -12 5 3 4 -1
-2 -10 -11 -12 -10 -18 6 -32 18 -16 21 -16 52 3 30 18 53 59 26 45 -7 -3 -3
2 7 10 18 14 21 14 34 -5 17 -25 23 -86 10 -114 -5 -11 -21 -29 -36 -40 -23
-17 -47 -21 -168 -25 -122 -4 -141 -3 -139 10 1 8 8 14 14 12 7 -1 2 11 -10
28 -13 16 -25 30 -27 30 -2 0 -27 -18 -54 -40 -30 -24 -61 -40 -77 -40 -21 0
-23 2 -11 11 12 8 12 10 -5 8 -37 -3 -44 1 -62 28 -16 23 -18 54 -19 228 -2
193 5 243 28 229 6 -4 8 -3 5 3 -8 13 19 37 32 29 5 -4 12 -2 16 4 7 11 43 7
73 -9z m390 -619 c2 -6 8 -10 12 -7 14 9 41 -40 44 -79 2 -21 -4 -46 -16 -65
-22 -34 -31 -40 -21 -14 5 12 3 14 -7 8 -9 -5 -11 -4 -6 4 4 6 13 8 19 5 7 -4
8 -3 4 2 -5 5 -10 7 -11 4 -2 -3 -10 1 -19 9 -9 7 -14 17 -11 22 3 5 2 8 -3 7
-4 -1 -19 2 -32 6 -14 5 -27 4 -34 -3 -16 -16 -17 -78 -1 -78 7 0 10 5 7 10
-3 6 -1 7 5 3 32 -20 19 -136 -15 -136 -8 0 -12 -4 -9 -8 5 -9 4 -10 -59 -16
-22 -2 -43 -4 -47 -5 -5 -1 -8 -7 -8 -15 0 -8 -5 -18 -12 -22 -7 -5 -8 -2 -3
7 5 8 5 11 0 7 -4 -4 -15 -2 -24 5 -14 10 -14 10 -3 -5 8 -9 10 -23 6 -29 -5
-8 -3 -10 7 -4 8 5 5 -1 -5 -13 -23 -26 -23 -26 -31 18 -3 19 -16 43 -28 53
-20 16 -20 17 -2 11 11 -4 17 -4 14 0 -13 14 -56 15 -73 3 -17 -13 -17 -15 1
-53 26 -52 21 -102 -13 -132 -14 -12 -30 -20 -35 -17 -5 4 -9 1 -9 -5 0 -7 -8
-9 -21 -5 -12 4 -27 8 -33 10 -25 5 -60 24 -47 24 11 1 10 6 -5 20 -19 17 -20
31 -19 217 0 134 4 206 12 220 16 28 75 56 107 50 37 -7 66 -25 66 -41 0 -8 6
-16 13 -16 6 -1 22 -3 35 -4 12 -1 22 2 22 7 0 5 5 6 11 2 6 -3 3 5 -6 19 -9
15 -15 30 -12 34 9 14 290 0 295 -15z"/>
<path d="M1496 4098 c3 -5 10 -6 15 -3 13 9 11 12 -6 12 -8 0 -12 -4 -9 -9z"/>
<path d="M864 4815 c-27 -27 -26 -59 4 -82 57 -45 123 36 72 87 -27 27 -46 25
-76 -5z m62 -20 c21 -21 -4 -56 -35 -48 -18 5 -26 39 -10 48 5 4 7 11 4 16 -8
11 26 -1 41 -16z"/>
<path d="M747 4482 c-24 -26 -21 -68 5 -86 31 -22 45 -20 73 9 30 29 31 49 5
75 -25 25 -62 26 -83 2z m69 -35 c2 -17 -33 -50 -46 -42 -13 8 -17 54 -6 59
22 9 49 1 52 -17z"/>
<path d="M554 4275 c-14 -21 -15 -31 -5 -51 26 -59 110 -42 111 22 0 52 -77
73 -106 29z m55 -7 c11 -11 12 -10 6 1 -5 9 -4 12 3 7 19 -12 14 -47 -8 -53
-11 -3 -17 -10 -13 -17 4 -8 3 -8 -6 0 -13 12 -23 53 -15 65 7 12 18 11 33 -3z"/>
<path d="M747 4072 c-20 -22 -22 -65 -4 -80 30 -24 56 -23 82 2 30 30 32 49 5
76 -25 25 -62 26 -83 2z m61 -25 c18 -14 15 -27 -10 -36 -29 -11 -46 2 -43 32
1 12 3 23 4 24 2 4 36 -10 49 -20z"/>
<path d="M861 3744 c-27 -34 -26 -40 4 -69 28 -29 42 -31 73 -9 43 30 18 104
-36 104 -11 0 -30 -12 -41 -26z m72 -51 c-23 -18 -53 -16 -53 3 0 8 -4 12 -10
9 -6 -3 -7 1 -3 10 11 30 46 36 65 12 16 -20 16 -23 1 -34z"/>
<path d="M910 3733 c0 -6 8 -17 18 -24 16 -13 16 -13 2 6 -8 11 -16 22 -17 24
-2 2 -3 0 -3 -6z"/>
<path d="M404 4878 c-4 -7 -4 -10 1 -6 4 4 15 2 24 -5 14 -11 14 -10 2 6 -16
20 -18 21 -27 5z"/>
<path d="M1700 4710 c-9 -6 -10 -10 -3 -10 6 0 15 5 18 10 8 12 4 12 -15 0z"/>
<path d="M4180 4636 c7 -7 13 -7 20 0 6 6 3 10 -10 10 -13 0 -16 -4 -10 -10z"/>
<path d="M4164 4622 c3 -5 2 -12 -4 -14 -5 -1 -11 -15 -12 -30 -2 -25 -4 -26
-19 -12 -12 11 -23 12 -42 5 -14 -5 -28 -7 -33 -3 -4 4 -4 1 0 -5 4 -7 2 -13
-3 -13 -6 0 -11 4 -11 9 0 15 -51 23 -66 10 -8 -6 -14 -8 -14 -3 0 5 -5 2 -10
-6 -8 -13 -11 -12 -24 5 -8 11 -12 24 -9 29 4 5 0 6 -7 1 -7 -4 -16 -2 -21 6
-8 12 -11 12 -19 -1 -7 -12 -10 -12 -10 -1 0 7 -14 -2 -30 -20 -18 -19 -29
-38 -25 -47 3 -9 -6 -27 -22 -44 -15 -16 -23 -28 -18 -26 6 2 11 -1 13 -7 11
-35 54 -52 70 -29 11 14 42 16 42 3 0 -8 12 -10 35 -6 19 3 35 3 35 -1 0 -4
20 -7 44 -7 24 0 42 3 40 6 -2 4 3 10 12 13 8 3 12 2 9 -4 -3 -6 2 -11 12 -11
74 -6 110 -3 127 11 18 14 19 13 13 -2 -3 -10 -2 -20 4 -23 5 -4 9 -3 8 2 -3
19 3 22 27 13 19 -8 31 -7 42 2 8 7 18 13 21 13 3 0 5 5 3 10 -2 6 7 1 20 -11
32 -29 53 -41 43 -24 -6 10 -4 12 8 7 10 -3 17 -2 17 3 0 6 5 10 11 10 5 0 8
-4 5 -8 -8 -14 58 -8 73 6 12 11 15 11 22 0 11 -18 30 -17 53 1 11 9 16 11 13
4 -4 -6 -2 -15 4 -19 8 -4 9 -3 5 4 -4 7 -3 12 3 12 5 0 13 -5 16 -10 5 -8 12
-7 23 2 13 11 15 11 8 -2 -6 -12 -5 -12 6 1 11 13 17 13 38 2 21 -10 26 -10
33 3 6 11 12 12 22 4 18 -15 53 -21 60 -10 3 5 13 6 22 3 11 -4 14 -3 9 5 -4
7 -3 12 2 12 22 0 50 110 29 118 -16 5 -17 1 -7 -20 11 -22 10 -22 -4 -4 -9
11 -16 23 -16 27 0 13 -49 19 -74 9 -22 -8 -30 -6 -47 11 -14 14 -28 19 -42
15 -12 -3 -26 -6 -30 -6 -5 0 -6 -4 -3 -9 3 -5 -20 -9 -52 -10 -31 0 -66 -1
-77 -1 -11 0 -35 2 -52 6 -19 3 -33 2 -33 -3 0 -14 -24 -12 -38 4 -10 10 -10
13 0 13 8 0 6 4 -4 11 -20 11 -71 1 -62 -12 3 -5 14 -9 25 -9 10 0 19 -6 19
-14 0 -8 8 -17 18 -21 16 -6 16 -7 0 -19 -22 -16 -23 -42 -3 -63 20 -20 13
-27 -20 -19 -20 5 -25 12 -25 39 0 18 -6 39 -12 45 -10 10 -10 15 2 22 13 8
13 11 1 22 -10 10 -15 10 -18 1 -3 -9 -9 -10 -23 -1 -14 9 -22 9 -35 -2 -14
-11 -17 -11 -21 7 -3 11 -18 26 -32 34 -15 7 -31 15 -36 18 -5 2 -6 -1 -2 -7z
m41 -42 c0 -8 -8 -16 -17 -18 -13 -2 -18 3 -18 18 0 15 5 20 18 18 9 -2 17
-10 17 -18z m-290 -72 c23 -66 23 -68 4 -68 -10 0 -19 6 -19 14 0 10 -10 14
-30 14 -18 -1 -30 -6 -30 -15 0 -7 -9 -13 -21 -13 -13 0 -19 5 -16 13 12 29
36 93 41 110 4 12 14 17 27 15 16 -2 26 -19 44 -70z m785 57 c0 -8 5 -15 10
-15 6 0 10 -7 10 -15 0 -8 -4 -15 -10 -15 -5 0 -10 -11 -10 -25 0 -14 5 -25
10 -25 6 0 10 -7 10 -15 0 -16 -9 -19 -34 -9 -10 4 -16 18 -16 40 0 19 -4 34
-10 34 -5 0 -10 7 -10 15 0 8 5 15 10 15 6 0 10 7 10 15 0 8 7 15 15 15 8 0
15 -7 15 -15z m-670 -30 c17 -21 4 -32 -20 -17 -23 14 -30 15 -30 4 0 -4 14
-13 30 -19 19 -7 30 -18 30 -31 0 -33 -57 -45 -80 -17 -17 21 -4 32 20 17 24
-15 30 -15 30 -2 0 5 -11 12 -24 16 -14 3 -27 13 -30 21 -14 36 48 59 74 28z
m110 0 c17 -21 7 -29 -18 -16 -25 14 -32 14 -32 1 0 -5 11 -12 24 -16 29 -7
41 -31 25 -50 -16 -19 -54 -17 -75 4 -17 16 -17 17 0 20 9 2 23 -1 31 -8 8 -7
16 -7 19 -1 3 5 -8 14 -24 20 -28 9 -40 37 -23 54 12 13 60 7 73 -8z m62 -40
c-3 -39 -8 -55 -18 -55 -10 0 -14 14 -14 55 0 46 3 55 18 55 14 0 17 -8 14
-55z m92 49 c9 -3 16 -12 16 -20 0 -16 -16 -19 -25 -4 -8 12 -25 13 -25 2 0
-5 11 -14 25 -20 33 -15 33 -50 1 -58 -25 -6 -66 10 -66 26 0 13 27 13 35 0 8
-13 25 -13 25 0 0 6 -8 13 -17 17 -35 12 -43 24 -32 44 10 19 34 24 63 13z
m204 -6 c7 -7 12 -20 12 -30 0 -14 -8 -18 -35 -18 -19 0 -35 -5 -35 -10 0 -7
13 -8 35 -4 39 7 48 -8 16 -26 -29 -15 -49 -12 -72 11 -20 20 -19 48 3 77 13
15 60 16 76 0z m130 0 c6 -6 12 -30 12 -54 0 -35 -3 -44 -17 -44 -14 0 -18 8
-18 37 0 28 -5 38 -17 41 -15 3 -18 -4 -18 -37 0 -34 -3 -41 -20 -41 -18 0
-20 7 -20 54 l0 53 43 0 c23 1 48 -4 55 -9z m200 0 c7 -7 12 -20 12 -30 0 -14
-8 -18 -35 -18 -19 0 -35 -5 -35 -11 0 -7 12 -9 35 -5 38 8 48 -7 16 -24 -63
-33 -113 30 -68 88 12 15 59 16 75 0z"/>
<path d="M3858 4515 c-4 -19 -1 -25 12 -25 13 0 17 6 13 20 -8 31 -20 33 -25
5z"/>
<path d="M4447 4524 c-13 -13 -7 -23 13 -21 11 1 19 6 17 11 -4 13 -21 18 -30
10z"/>
<path d="M4775 4519 c-10 -15 1 -23 20 -15 9 3 13 10 10 16 -8 13 -22 13 -30
-1z"/>
<path d="M4646 4608 c3 -4 9 -8 15 -8 5 0 9 4 9 8 0 5 -7 9 -15 9 -8 0 -12 -4
-9 -9z"/>
<path d="M2435 4589 c-22 -11 -36 -38 -56 -106 -7 -24 -16 -43 -20 -43 -5 0
-5 -7 -2 -17 4 -10 2 -14 -4 -10 -7 5 -9 -1 -5 -15 4 -16 2 -19 -8 -13 -9 5
-11 4 -6 -4 4 -6 1 -23 -8 -36 -9 -13 -16 -31 -16 -40 0 -8 -4 -23 -9 -33 -5
-9 -15 -36 -22 -59 -6 -23 -15 -40 -20 -38 -4 3 -6 -6 -5 -20 2 -13 -1 -22 -6
-19 -5 3 -8 0 -7 -7 1 -8 -2 -29 -6 -47 -6 -25 -10 -30 -17 -20 -7 9 -8 4 -4
-14 4 -18 2 -28 -5 -28 -6 0 -8 -7 -5 -16 3 -8 2 -12 -4 -9 -9 6 -14 -8 -11
-28 1 -4 -5 -23 -14 -43 -8 -19 -10 -32 -5 -29 4 3 15 -1 22 -8 11 -12 16 -12
26 0 17 17 112 18 112 1 0 -8 3 -9 8 -3 4 6 19 16 34 24 18 9 32 28 40 55 l13
41 101 2 100 2 13 -35 c7 -18 10 -38 7 -43 -12 -20 39 -38 96 -34 32 3 66 -1
78 -7 15 -8 20 -8 16 -1 -4 6 0 11 8 11 9 0 23 11 32 25 14 21 19 23 33 13 14
-12 14 -11 2 5 -10 12 -17 14 -26 7 -9 -8 -15 -4 -20 12 -4 13 -8 26 -10 31
-6 18 -7 22 -6 30 1 4 -11 35 -27 70 -15 34 -27 69 -27 77 0 8 -6 21 -15 28
-8 8 -9 11 -3 7 9 -4 11 -1 7 9 -3 9 -10 14 -14 11 -5 -3 -7 6 -4 20 3 17 -1
27 -11 31 -12 5 -13 9 -4 20 6 8 7 14 2 14 -17 0 -42 67 -38 102 2 18 1 27 -2
20 -4 -10 -9 -8 -20 7 -8 12 -12 25 -8 30 3 5 1 12 -5 16 -6 4 -8 11 -5 16 4
5 2 9 -3 9 -6 0 -8 10 -4 22 3 14 2 19 -6 14 -7 -4 -12 -2 -12 3 0 6 -9 20
-20 31 -17 17 -33 20 -97 19 -43 0 -87 -5 -98 -10z m250 -199 c35 -96 84 -233
110 -305 26 -71 51 -138 56 -147 9 -17 3 -18 -79 -18 l-89 0 -17 58 -18 57
-122 -3 -123 -3 -17 -55 -17 -54 -84 0 -84 0 37 103 c20 56 73 202 117 325
l80 222 93 -2 93 -3 64 -175z m-490 -480 c3 -5 1 -10 -4 -10 -6 0 -11 5 -11
10 0 6 2 10 4 10 3 0 8 -4 11 -10z"/>
<path d="M2585 4519 c-4 -6 -5 -12 -2 -15 2 -3 7 2 10 11 7 17 1 20 -8 4z"/>
<path d="M2487 4277 c-20 -62 -37 -115 -37 -117 0 -3 35 -4 77 -3 58 2 77 5
74 15 -16 54 -69 209 -73 213 -2 2 -21 -46 -41 -108z m57 -29 c-3 -5 0 -8 5
-8 12 0 15 -49 4 -51 -49 -8 -64 -7 -61 4 2 7 10 34 17 61 14 47 14 48 27 25
7 -13 10 -27 8 -31z"/>
<path d="M2665 4280 c9 -16 18 -30 21 -30 2 0 -2 14 -11 30 -9 17 -18 30 -21
30 -2 0 2 -13 11 -30z"/>
<path d="M2619 4233 c-13 -16 -12 -17 4 -4 16 13 21 21 13 21 -2 0 -10 -8 -17
-17z"/>
<path d="M2631 4124 c0 -11 3 -14 6 -6 3 7 2 16 -1 19 -3 4 -6 -2 -5 -13z"/>
<path d="M2390 4074 c0 -8 5 -12 10 -9 6 4 8 11 5 16 -9 14 -15 11 -15 -7z"/>
<path d="M2665 4070 c10 -11 20 -20 23 -20 3 0 -3 9 -13 20 -10 11 -20 20 -23
20 -3 0 3 -9 13 -20z"/>
<path d="M3165 4582 c-19 -16 -20 -29 -19 -237 1 -265 1 -265 -34 -259 -15 3
-31 10 -37 15 -7 7 -5 8 5 4 11 -4 16 1 16 14 0 15 -3 17 -13 9 -8 -7 -13 -7
-13 0 0 5 10 17 23 26 l22 17 -23 -11 c-12 -6 -28 -7 -35 -3 -12 8 -180 12
-172 4 3 -2 0 -10 -6 -18 -17 -19 -13 -88 7 -117 9 -14 12 -26 8 -26 -5 0 -1
-5 9 -11 9 -6 15 -15 11 -20 -3 -5 0 -8 8 -7 7 2 12 -3 10 -10 -1 -8 2 -11 7
-8 5 3 14 -1 21 -9 7 -8 19 -15 27 -15 8 0 12 -4 8 -9 -3 -6 3 -10 12 -9 10 0
29 -3 43 -7 43 -10 130 -12 130 -1 0 5 3 7 6 3 4 -3 19 0 35 8 15 8 36 12 46
9 15 -5 15 -4 3 4 -12 9 -9 13 13 21 15 6 27 13 27 16 0 4 -5 3 -12 -1 -7 -5
-8 -3 -4 5 5 7 15 10 23 7 8 -3 11 -2 8 3 -3 5 -1 12 4 16 6 3 8 12 5 19 -3 7
1 20 9 28 11 11 14 65 15 279 l2 266 -25 11 c-38 17 -146 13 -170 -6z m165
-264 c0 -225 -2 -257 -19 -294 -37 -82 -140 -127 -241 -105 -95 21 -138 55
-164 134 -29 85 -28 87 64 87 70 0 80 -2 80 -18 0 -10 7 -28 16 -40 20 -29 79
-31 94 -3 6 12 10 112 10 255 l0 236 80 0 80 0 0 -252z"/>
<path d="M3043 4055 c0 -8 4 -15 9 -15 4 0 8 4 8 9 0 6 -4 12 -8 15 -5 3 -9
-1 -9 -9z"/>
<path d="M3213 3989 c-2 -23 3 -25 10 -4 4 8 3 16 -1 19 -4 3 -9 -4 -9 -15z"/>
<path d="M3463 4585 l-31 -13 3 -324 c2 -177 4 -328 6 -335 1 -7 7 -9 12 -6 6
4 8 0 4 -9 -5 -14 -1 -15 24 -8 28 8 30 7 24 -13 -5 -22 -5 -22 6 1 15 28 82
32 98 5 9 -16 10 -16 11 -2 0 9 7 22 15 29 14 11 16 57 14 341 l-1 327 -27 10
c-38 14 -121 13 -158 -3z m157 -340 l0 -325 -80 0 -80 0 0 325 0 325 80 0 80
0 0 -325z"/>
<path d="M4869 4468 c-5 -18 -6 -38 -1 -34 7 8 12 36 6 36 -2 0 -4 -1 -5 -2z"/>
<path d="M4332 4360 c-8 -13 -23 -20 -41 -20 -17 0 -33 -5 -37 -11 -4 -8 -9
-7 -15 2 -7 11 -9 11 -9 -2 0 -9 -8 -19 -18 -21 -11 -3 -19 0 -19 8 0 7 3 13
6 12 23 -2 22 4 -2 17 -31 16 -63 8 -95 -22 -19 -19 -77 -29 -66 -12 3 6 -9 4
-28 -4 -35 -14 -79 -6 -106 20 -29 28 -62 2 -62 -47 0 -11 -8 -24 -17 -27 -10
-4 -22 -13 -26 -20 -5 -7 -11 -12 -15 -9 -4 2 -7 -6 -7 -19 0 -13 3 -21 6 -19
4 2 12 -3 18 -10 7 -8 25 -19 41 -25 26 -9 32 -7 50 17 12 15 18 21 14 13 -5
-11 -3 -13 9 -8 11 4 17 1 17 -8 0 -20 155 -19 171 1 10 12 14 12 24 -3 11
-14 17 -15 37 -6 18 8 30 8 47 -2 16 -8 37 -9 67 -4 24 5 50 6 58 3 8 -3 24
-1 35 5 13 7 22 8 26 1 9 -15 62 -12 78 4 12 12 17 13 33 1 29 -20 59 -22 79
-5 10 8 25 15 33 15 11 0 17 10 17 30 1 35 -9 61 -38 93 -20 21 -44 31 -33 13
4 -5 -3 -7 -14 -4 -12 3 -29 -2 -39 -11 -17 -15 -19 -15 -32 1 -13 15 -12 16
6 9 11 -4 16 -4 12 1 -13 12 -89 14 -81 2 4 -7 -1 -7 -15 1 -12 6 -25 18 -28
26 -3 8 -11 13 -18 10 -8 -3 -11 2 -8 15 7 25 1 24 -15 -1z m-152 -29 c0 -11
-9 -23 -20 -26 -11 -4 -18 -11 -14 -16 3 -5 10 -7 15 -4 5 4 9 -18 9 -49 0
-41 -4 -56 -14 -56 -10 0 -15 19 -18 68 -3 37 -1 69 4 71 5 1 14 9 21 17 16
18 17 17 17 -5z m185 -10 c3 -5 1 -13 -5 -16 -15 -9 -43 3 -35 15 8 13 32 13
40 1z m-60 -71 c0 -69 0 -70 -25 -68 -14 1 -30 -1 -36 -5 -19 -11 -54 22 -54
53 0 36 34 64 61 50 25 -14 27 -13 21 15 -3 19 0 25 14 25 17 0 19 -8 19 -70z
m-406 13 c-1 -27 -6 -56 -11 -65 -15 -31 -88 -18 -88 15 0 5 14 7 30 4 l30 -6
0 49 c0 44 3 50 20 50 18 0 21 -6 19 -47z m57 -9 c0 -16 4 -36 8 -42 14 -22
38 8 34 42 -2 23 2 32 15 34 14 3 17 -5 17 -51 l0 -54 -45 -1 c-51 -1 -65 14
-65 73 0 29 3 36 18 33 11 -2 17 -13 18 -34z m129 26 c5 -8 11 -7 21 1 11 9
14 8 14 -9 0 -11 -8 -22 -18 -24 -15 -4 -18 -12 -14 -37 4 -26 1 -31 -17 -31
-19 0 -21 6 -21 55 0 41 4 55 14 55 8 0 18 -5 21 -10z m275 -54 c0 -40 -4 -53
-15 -53 -12 0 -15 13 -15 58 0 48 3 57 15 53 11 -4 15 -21 15 -58z m101 54
c21 -12 26 -40 6 -40 -7 0 -18 5 -24 11 -15 15 -33 3 -33 -21 0 -26 15 -33 39
-18 23 14 36 6 28 -17 -8 -18 -67 -21 -85 -3 -20 20 -14 65 10 82 26 19 33 19
59 6z m129 -10 c27 -27 25 -55 -6 -79 -34 -27 -40 -26 -69 3 -27 27 -24 58 8
81 29 20 43 19 67 -5z"/>
<path d="M4230 4245 c-10 -12 -10 -18 0 -29 16 -20 42 -8 38 17 -4 26 -21 32
-38 12z"/>
<path d="M4534 4246 c-8 -22 3 -49 19 -43 6 2 12 14 12 27 0 27 -22 39 -31 16z"/>
<path d="M4611 4317 c-9 -12 -8 -16 3 -20 19 -7 27 4 17 21 -6 10 -10 10 -20
-1z"/>
<path d="M4036 4078 c3 -5 10 -6 15 -3 13 9 11 12 -6 12 -8 0 -12 -4 -9 -9z"/>
<path d="M4180 4076 c13 -16 12 -20 -4 -32 -13 -9 -24 -10 -37 -4 -22 12 -32
13 -25 1 3 -5 -2 -11 -12 -13 -20 -6 -56 15 -45 25 6 7 -20 11 -46 8 -8 -2
-10 3 -5 11 4 8 3 10 -2 5 -5 -5 -9 -13 -9 -19 0 -6 -8 -16 -18 -22 -14 -8
-20 -8 -27 4 -8 12 -10 12 -10 1 0 -11 -3 -11 -17 0 -11 10 -14 10 -9 2 11
-19 -25 -16 -52 3 -12 8 -20 20 -17 25 4 5 1 9 -4 9 -6 0 -11 -4 -11 -9 0 -7
-35 -24 -50 -23 -3 0 -5 -28 -5 -63 0 -35 3 -61 7 -59 4 3 5 -1 2 -9 -3 -8 0
-18 7 -23 18 -11 101 -13 120 -3 17 8 39 -6 39 -25 0 -6 -4 -5 -9 2 -7 11 -9
11 -14 -1 -4 -10 0 -14 11 -13 9 2 18 8 20 14 2 7 8 10 13 6 5 -3 9 0 9 6 0 6
5 8 10 5 6 -3 10 -1 10 6 0 7 7 4 16 -7 8 -10 13 -13 9 -7 -4 9 -1 11 10 7 8
-4 23 0 32 7 14 12 16 12 8 0 -6 -11 -4 -13 8 -8 10 3 17 3 17 -1 0 -10 39 -8
63 2 12 6 25 2 39 -10 12 -11 18 -13 14 -6 -7 11 6 17 29 12 5 -1 17 -2 27 -3
9 -1 24 -11 34 -24 24 -33 80 -31 117 3 15 14 25 29 22 34 -3 6 1 7 10 4 12
-5 13 -9 4 -20 -6 -8 -8 -14 -3 -15 5 0 19 -2 31 -3 12 -1 20 1 17 6 -4 5 -13
7 -21 4 -8 -3 -12 -2 -9 3 3 5 15 11 26 14 11 3 18 1 14 -4 -3 -5 2 -6 10 -3
9 3 13 11 10 16 -4 6 4 5 16 -2 16 -9 29 -9 45 -2 18 8 27 7 44 -9 11 -11 21
-15 21 -9 0 6 5 8 10 5 6 -4 7 -11 4 -17 -4 -6 -2 -8 4 -5 5 4 8 16 5 27 -6
21 11 28 23 8 5 -7 3 -8 -6 -3 -8 5 -11 4 -6 -3 4 -6 13 -9 22 -5 8 3 23 -2
32 -10 13 -12 21 -13 32 -6 13 9 12 10 -2 5 -23 -7 -32 9 -13 24 10 9 15 9 15
1 0 -6 12 -11 27 -11 14 0 35 -8 46 -17 11 -10 17 -12 13 -5 -4 7 -2 12 6 12
10 0 9 3 -2 9 -8 6 -18 7 -24 4 -5 -3 -6 -1 -2 5 4 6 14 8 23 5 11 -4 14 -3 9
5 -4 7 -3 12 2 12 6 0 9 23 8 50 0 28 -5 50 -10 49 -5 0 -12 3 -15 8 -9 14
-82 45 -88 39 -4 -3 -1 -6 5 -6 17 0 15 -17 -4 -24 -8 -3 -12 -2 -9 4 3 6 0
10 -9 10 -8 0 -24 12 -35 28 -13 17 -19 20 -14 8 4 -13 3 -17 -5 -12 -7 4 -12
2 -12 -4 0 -6 -4 -8 -10 -5 -5 3 -10 -3 -10 -14 0 -24 -15 -28 -24 -6 -4 11
-11 13 -29 6 -14 -6 -29 -6 -38 0 -8 5 -18 9 -24 9 -5 0 -4 -4 3 -9 10 -6 8
-10 -9 -14 -13 -4 -26 -2 -30 4 -3 5 -10 9 -15 8 -21 -4 -28 2 -14 12 10 7 11
9 2 7 -8 -2 -12 -7 -10 -12 5 -14 -42 -27 -61 -16 -10 5 -29 7 -42 4 -20 -5
-21 -4 -9 6 13 10 13 11 -3 6 -19 -6 -67 12 -67 26 0 5 6 6 13 2 6 -4 8 -3 4
2 -12 13 -66 11 -71 -2 -5 -14 -42 -8 -66 10 -13 10 -13 9 0 -8z m105 -26 c3
-5 4 -14 0 -20 -8 -13 -35 -1 -35 16 0 16 26 19 35 4z m-55 -75 c0 -65 -2 -75
-17 -75 -16 0 -18 10 -18 75 0 65 2 75 18 75 15 0 17 -10 17 -75z m110 60 c0
-11 -29 -11 -33 -1 -4 10 1 12 14 9 10 -3 19 -7 19 -8z m-498 -65 c-3 -52 -7
-70 -18 -70 -11 0 -14 16 -14 70 0 60 3 70 18 70 15 0 17 -9 14 -70z m198 55
c0 -8 5 -15 10 -15 6 0 10 -7 10 -16 0 -8 -4 -12 -10 -9 -6 4 -10 -7 -10 -24
0 -17 5 -31 10 -31 6 0 10 -7 10 -15 0 -8 -6 -15 -14 -15 -23 0 -47 30 -44 54
1 11 -1 26 -4 32 -4 6 -4 20 -1 32 6 25 43 31 43 7z m690 0 c0 -8 5 -15 10
-15 6 0 10 -7 10 -16 0 -8 -4 -12 -10 -9 -6 4 -10 -7 -10 -24 0 -17 5 -31 10
-31 6 0 10 -7 10 -15 0 -16 -9 -19 -34 -9 -10 4 -16 18 -16 38 0 18 -6 38 -12
44 -10 10 -10 15 1 21 7 5 10 14 7 20 -5 7 1 11 13 11 12 0 21 -7 21 -15z
m-765 -28 c2 -7 6 -31 8 -54 4 -37 3 -43 -14 -43 -15 0 -19 7 -19 38 0 43 -6
53 -26 45 -9 -3 -14 -20 -14 -44 0 -27 -4 -39 -14 -39 -10 0 -15 16 -18 54
l-3 54 48 1 c29 0 50 -5 52 -12z m205 -6 c17 -33 11 -41 -31 -41 -25 0 -38 -4
-34 -10 4 -6 22 -8 43 -5 l37 6 -24 -20 c-13 -12 -29 -21 -37 -21 -19 0 -54
36 -54 57 0 46 79 73 100 34z m120 -36 c0 -48 -2 -55 -20 -55 -18 0 -20 7 -20
55 0 48 2 55 20 55 18 0 20 -7 20 -55z m130 -4 c0 -63 -19 -101 -51 -101 -29
0 -59 18 -59 35 0 11 5 12 26 5 36 -14 41 -13 47 10 4 17 2 18 -14 9 -41 -22
-80 27 -58 74 10 23 18 26 60 25 l49 0 0 -57z m108 47 c7 -7 12 -20 12 -30 0
-14 -8 -18 -35 -18 -19 0 -35 -5 -35 -10 0 -7 14 -8 38 -4 l37 7 -19 -22 c-25
-28 -50 -27 -75 5 -19 25 -19 45 2 72 12 15 59 16 75 0z m132 -8 c5 -10 10
-35 10 -54 0 -29 -4 -36 -20 -36 -17 0 -20 7 -20 38 0 21 -3 42 -7 45 -13 13
-33 -16 -33 -49 0 -24 -5 -34 -15 -34 -11 0 -15 13 -15 54 l0 53 45 1 c34 1
47 -3 55 -18z m200 1 c17 -33 11 -41 -31 -41 -25 0 -38 -4 -34 -10 4 -6 22 -8
43 -5 l37 6 -24 -20 c-13 -12 -31 -21 -42 -21 -20 0 -49 36 -49 62 0 44 79 67
100 29z"/>
<path d="M4110 3980 c0 -5 9 -10 21 -10 11 0 17 5 14 10 -3 6 -13 10 -21 10
-8 0 -14 -4 -14 -10z"/>
<path d="M4342 3958 c2 -13 10 -23 18 -23 8 0 16 10 18 23 3 17 -2 22 -18 22
-16 0 -21 -5 -18 -22z"/>
<path d="M4475 3980 c-3 -5 3 -10 15 -10 12 0 18 5 15 10 -3 6 -10 10 -15 10
-5 0 -12 -4 -15 -10z"/>
<path d="M4795 3980 c-4 -6 6 -10 22 -10 22 0 25 2 13 10 -19 12 -27 12 -35 0z"/>
<path d="M2851 4064 c0 -11 3 -14 6 -6 3 7 2 16 -1 19 -3 4 -6 -2 -5 -13z"/>
<path d="M2166 4053 c-6 -14 -5 -15 5 -6 7 7 10 15 7 18 -3 3 -9 -2 -12 -12z"/>
<path d="M680 3951 c0 -6 4 -13 10 -16 6 -3 7 1 4 9 -7 18 -14 21 -14 7z"/>
<path d="M1017 3873 c3 -7 6 -13 8 -13 2 0 5 6 8 13 3 8 -1 14 -8 14 -7 0 -11
-6 -8 -14z"/>
<path d="M2670 3876 c0 -2 7 -7 16 -10 8 -3 12 -2 9 4 -6 10 -25 14 -25 6z"/>
<path d="M4170 3876 c0 -2 8 -10 18 -17 15 -13 16 -12 3 4 -13 16 -21 21 -21
13z"/>
<path d="M4233 3867 c0 -8 6 -14 14 -14 9 0 10 4 2 14 -6 7 -12 13 -14 13 -1
0 -2 -6 -2 -13z"/>
<path d="M2845 3860 c-3 -6 1 -7 9 -4 18 7 21 14 7 14 -6 0 -13 -4 -16 -10z"/>
<path d="M520 3686 c0 -2 7 -9 15 -16 13 -11 14 -10 9 4 -5 14 -24 23 -24 12z"/>
<path d="M404 3636 c1 -8 5 -18 8 -22 4 -3 5 1 4 10 -1 8 -5 18 -8 22 -4 3 -5
-1 -4 -10z"/>
<path d="M610 3566 c0 -2 7 -7 16 -10 8 -3 12 -2 9 4 -6 10 -25 14 -25 6z"/>
</g>
</svg>
